<svg width="128" height="128" viewBox="0 0 128 128" fill="none" xmlns="http://www.w3.org/2000/svg">
<rect width="128" height="128" rx="29" fill="url(#paint0_linear_248_1269)"/>
<g filter="url(#filter0_d_248_1269)">
<path d="M61.1554 27.4941C62.0695 24.7643 65.9306 24.7643 66.8448 27.4941L73.6365 47.7738C74.043 48.9874 75.1745 49.8095 76.4542 49.821L97.8402 50.0135C100.719 50.0395 101.912 53.7115 99.5983 55.4245L82.4099 68.1506C81.3813 68.9122 80.9491 70.2424 81.3336 71.463L87.7591 91.8618C88.624 94.6075 85.5004 96.877 83.1563 95.2059L65.7415 82.7914C64.6994 82.0485 63.3007 82.0485 62.2586 82.7914L44.8438 95.2059C42.4998 96.877 39.3761 94.6075 40.241 91.8618L46.6665 71.463C47.051 70.2424 46.6188 68.9122 45.5902 68.1506L28.4018 55.4245C26.0882 53.7115 27.2813 50.0395 30.1599 50.0135L51.5459 49.821C52.8256 49.8095 53.9572 48.9874 54.3636 47.7738L61.1554 27.4941Z" fill="#FCC304"/>
<path d="M61.6295 27.6529C62.3913 25.3781 65.6088 25.3781 66.3707 27.6528L73.1624 47.9326C73.6366 49.3484 74.9567 50.3075 76.4497 50.321L97.8357 50.5135C100.235 50.5351 101.229 53.5952 99.3008 55.0227L82.1124 67.7488C80.9124 68.6373 80.4081 70.1891 80.8567 71.6133L87.2822 92.012C88.003 94.3001 85.3999 96.1913 83.4465 94.7988L66.0317 82.3843C64.8159 81.5175 63.1842 81.5175 61.9684 82.3843L44.5536 94.7988C42.6002 96.1913 39.9972 94.3001 40.7179 92.012L47.1434 71.6133C47.592 70.1891 47.0877 68.6373 45.8877 67.7488L28.6993 55.0227C26.7713 53.5952 27.7656 50.5351 30.1644 50.5135L51.5504 50.321C53.0434 50.3075 54.3635 49.3484 54.8377 47.9326L61.6295 27.6529Z" stroke="#352E2E"/>
</g>
<defs>
<filter id="filter0_d_248_1269" x="23.1814" y="25.4468" width="81.6373" height="78.3294" filterUnits="userSpaceOnUse" color-interpolation-filters="sRGB">
<feFlood flood-opacity="0" result="BackgroundImageFix"/>
<feColorMatrix in="SourceAlpha" type="matrix" values="0 0 0 0 0 0 0 0 0 0 0 0 0 0 0 0 0 0 127 0" result="hardAlpha"/>
<feOffset dy="4"/>
<feGaussianBlur stdDeviation="2"/>
<feComposite in2="hardAlpha" operator="out"/>
<feColorMatrix type="matrix" values="0 0 0 0 0 0 0 0 0 0 0 0 0 0 0 0 0 0 0.25 0"/>
<feBlend mode="normal" in2="BackgroundImageFix" result="effect1_dropShadow_248_1269"/>
<feBlend mode="normal" in="SourceGraphic" in2="effect1_dropShadow_248_1269" result="shape"/>
</filter>
<linearGradient id="paint0_linear_248_1269" x1="118.5" y1="120" x2="9" y2="7.5" gradientUnits="userSpaceOnUse">
<stop stop-color="#18191B"/>
<stop offset="1" stop-color="#484848"/>
</linearGradient>
</defs>
</svg>
