<svg id="icon" xmlns="http://www.w3.org/2000/svg" xmlns:xlink="http://www.w3.org/1999/xlink" viewBox="0 0 99.82 82.92"><defs><style>.cls-1{fill:#002121;}.cls-1,.cls-2,.cls-3,.cls-4,.cls-5,.cls-6,.cls-7,.cls-8{fill-rule:evenodd;}.cls-2{fill:url(#未命名的渐变_8);}.cls-3{fill:url(#未命名的渐变_2);}.cls-4{fill:url(#未命名的渐变_3);}.cls-5{fill:url(#未命名的渐变_4);}.cls-6{fill:url(#未命名的渐变_5);}.cls-7{fill:url(#未命名的渐变_6);}.cls-8{fill:url(#未命名的渐变_7);}</style><linearGradient id="未命名的渐变_8" x1="56.14" y1="78.05" x2="56.6" y2="78" gradientTransform="matrix(150.09, 0, 0, -55.33, -8401.48, 4405.61)" gradientUnits="userSpaceOnUse"><stop offset="0" stop-color="#4975ff"/><stop offset="1" stop-color="#003d86"/></linearGradient><linearGradient id="未命名的渐变_2" x1="55.6" y1="76.04" x2="55.99" y2="75.51" gradientTransform="matrix(92.29, 0, 0, -87.35, -5112.08, 6686.11)" gradientUnits="userSpaceOnUse"><stop offset="0" stop-color="#ad6fff"/><stop offset="1" stop-color="#0b3ec2"/></linearGradient><linearGradient id="未命名的渐变_3" x1="55.48" y1="76.54" x2="55.48" y2="75.92" gradientTransform="matrix(74.32, 0, 0, -76.15, -4081.81, 5851.69)" gradientUnits="userSpaceOnUse"><stop offset="0" stop-color="#a479ef"/><stop offset="1" stop-color="#3e4edb"/></linearGradient><linearGradient id="未命名的渐变_4" x1="54.31" y1="79.75" x2="54.82" y2="79.66" gradientTransform="matrix(60.25, 0, 0, -41.1, -3204.59, 3347.67)" gradientUnits="userSpaceOnUse"><stop offset="0" stop-color="#03616a"/><stop offset="1" stop-color="#00cc96"/></linearGradient><linearGradient id="未命名的渐变_5" x1="52.74" y1="86.82" x2="53.23" y2="86.63" gradientTransform="matrix(34.92, 0, 0, -20.38, -1795.05, 1826.18)" gradientUnits="userSpaceOnUse"><stop offset="0" stop-color="#ff99bd"/><stop offset="1" stop-color="#ff48bb"/></linearGradient><linearGradient id="未命名的渐变_6" x1="54.91" y1="79.19" x2="55.16" y2="78.95" gradientTransform="matrix(67.33, 0, 0, -44.91, -3640.43, 3624.42)" gradientUnits="userSpaceOnUse"><stop offset="0" stop-color="#005878"/><stop offset="1" stop-color="#01daad"/></linearGradient><linearGradient id="未命名的渐变_7" x1="53.42" y1="79.19" x2="53.69" y2="78.68" gradientTransform="matrix(39.98, 0, 0, -44.19, -2083.93, 3537.8)" gradientUnits="userSpaceOnUse"><stop offset="0" stop-color="#ff95bb"/><stop offset="1" stop-color="#ffa6cf"/></linearGradient></defs><g id="_9" data-name="9"><path id="Fill-1" class="cls-1" d="M33.92,33.61a4.55,4.55,0,1,0,4.55,4.55,4.55,4.55,0,0,0-4.55-4.55" transform="translate(-14.09 -22.54)"/><path id="Fill-7" class="cls-2" d="M113.91,81.37A54.58,54.58,0,0,1,17.48,69.91,44.15,44.15,0,0,0,36,85.71h0a43.91,43.91,0,0,0,18.2,3.93c.48,0,1,0,1.42,0a44,44,0,0,0,9.75-1.41,43.43,43.43,0,0,0,8.06-3A33.67,33.67,0,0,0,88.64,84h0a33.26,33.26,0,0,0,12.17-7.13h0l.56-.52,4.57,1.86Z" transform="translate(-14.09 -22.54)"/><g id="Fill-11"><path id="path-3" class="cls-3" d="M73.38,85.22a43.43,43.43,0,0,1-8.06,3,44,44,0,0,1-9.75,1.41c-.47,0-.94,0-1.42,0A43.91,43.91,0,0,1,36,85.71h0a44.15,44.15,0,0,1-18.47-15.8h0a53.6,53.6,0,0,1-2.18-7.48h0a55.33,55.33,0,0,1-.73-18.78,21.07,21.07,0,0,1,4.15-10.07l0-.06A30.13,30.13,0,0,0,47.88,71.46c.45,0,.89,0,1.33,0,.6,0,1.21-.07,1.8-.13a32.88,32.88,0,0,0,3.7,4.44,33,33,0,0,0,18.67,9.48" transform="translate(-14.09 -22.54)"/></g><g id="Fill-15"><path id="path-6" class="cls-4" d="M33.92,42.7a4.55,4.55,0,1,1,4.55-4.54,4.55,4.55,0,0,1-4.55,4.54Zm13.46-2.42a15.21,15.21,0,0,1,18.1-4,28.51,28.51,0,0,0-8.76-9.13,28.39,28.39,0,0,0-38,6.35A30.13,30.13,0,0,0,47.88,71.46c.45,0,.89,0,1.33,0,.6,0,1.21-.07,1.8-.13a30.4,30.4,0,0,1-1.88-3,32.94,32.94,0,0,1-3.75-11.52h0a14.93,14.93,0,0,1-1.31-4,15.24,15.24,0,0,1,3.31-12.47Z" transform="translate(-14.09 -22.54)"/></g><g id="Fill-21"><path id="path-9" class="cls-5" d="M104.84,72.37a33.19,33.19,0,0,1-3.47,3.92l-.56.52h0A33.26,33.26,0,0,1,88.64,84h0A19.41,19.41,0,0,1,68.22,73.54h0a19.23,19.23,0,0,1-2.08-8.22c0-.17,0-.35,0-.53s0-.34,0-.51,0-.56,0-.84l.33-.18.21-.13a27.78,27.78,0,0,0,1.94-5.33l2.71,1.09.79.32,20.23,8.15,11.26,4.54Z" transform="translate(-14.09 -22.54)"/></g><path id="Fill-13" class="cls-6" d="M66.51,63.25l-.33.18a15.2,15.2,0,0,1-20.8-6.7h0a14.93,14.93,0,0,1-1.31-4c.34-.09.68-.17,1-.24A19.34,19.34,0,0,1,66.24,62.71l.27.54" transform="translate(-14.09 -22.54)"/><g id="Fill-17"><path id="path-13" class="cls-7" d="M88.64,84a33.16,33.16,0,0,1-33.93-8.21A32.88,32.88,0,0,1,51,71.3a30.4,30.4,0,0,1-1.88-3,32.94,32.94,0,0,1-3.75-11.52,15.21,15.21,0,0,0,20.8,6.7c0,.28,0,.56,0,.84s0,.34,0,.51,0,.36,0,.53a19.23,19.23,0,0,0,2.08,8.22h0A19.49,19.49,0,0,0,88.64,84" transform="translate(-14.09 -22.54)"/></g><path id="Fill-19" class="cls-8" d="M69.51,50.86a29.09,29.09,0,0,1-.18,3.25h0a28.06,28.06,0,0,1-.67,3.68,27.78,27.78,0,0,1-1.94,5.33l-.21.13-.27-.54A19.39,19.39,0,0,0,45.1,52.52c-.35.07-.69.15-1,.24a15.24,15.24,0,0,1,3.31-12.47h0a15.21,15.21,0,0,1,18.1-4,28.12,28.12,0,0,1,4,14.56" transform="translate(-14.09 -22.54)"/></g></svg>